<svg xmlns="http://www.w3.org/2000/svg" viewBox="0 0 231.669 481.701"><defs><style>.a{fill:#ddd8d8;}.b{fill:#ffd083;}.c{fill:#ffde17;}.d{fill:none;stroke:#000;stroke-miterlimit:10;}.e{fill:#fff;}</style></defs><g transform="translate(0.029 0.055)"><path class="a" d="M93.087,675.87v16.21H76.877c-10.131,12.833-58.761,9.456-53.358,3.377s45.253-16.885,45.253-16.885l6.079-2.7Z" transform="translate(-7.336 -219.215)"/><path class="a" d="M182.72,675.87v16.21h16.21c10.131,12.833,58.761,9.456,53.358,3.377s-45.253-16.885-45.253-16.885l-6.079-2.7Z" transform="translate(-59.146 -219.215)"/><path class="b" d="M328.833,230.492c7.43-12.833-6.754-18.236-6.754-18.236.675-4.728-4.052-16.885-4.052-16.885C316,206.852,307.22,217.659,307.22,217.659Z" transform="translate(-99.556 -63.253)"/><g transform="translate(3.742 93.963)"><path class="c" d="M76.5,143.723s-39.485,5.511-64.84,64.435c-26.679,62.01,39.174,80.375,39.174,80.375L44.758,330.1s49.305,24.943,110.093,2.08V237.957s4.053,20.094,23.64,20.094S233.2,218.559,233.2,218.559l-31.069-19.4-6.754,9.01s-9.456-59.585-53.358-69.291C142.018,138.873,107.572,171.442,76.5,143.723Z" transform="translate(-5.3 -138.88)"/></g><path class="d" d="M123.092,108.52s1.918,4.228.081,17.541l-15.953,5.322" transform="translate(-34.64 -35.063)"/><path class="d" d="M163.616,106.87s-1.351,14.859,2.7,18.912l22.289,2.7" transform="translate(-52.875 -34.527)"/><path class="d" d="M35.095,231.648c-2.026,36.473,41.2,28.368,41.2,28.368l-.675,29.043s-64.84,18.236-74.3-50.656S66.839,145.87,66.839,145.87s26.341,23.64,70.243,0" transform="translate(0 -47.186)"/><path class="d" d="M75.772,669.87s-39.85,10.807-45.253,16.885,43.227,9.456,53.358-3.377h16.21V669.87" transform="translate(-9.609 -217.267)"/><path class="d" d="M214.035,678.87s39.85,10.807,45.253,16.885-43.227,9.456-53.358-3.377H189.72V678.87" transform="translate(-61.418 -220.188)"/><path class="e" d="M118.72,314.378s12.833,2.026,21.613-13.508c0,0,.675,8.105-5.4,13.508,0,0,5.4,5.4,0,15.535s-16.21,6.754-16.21,6.754Z" transform="translate(-38.373 -97.496)"/><path class="d" d="M215.72,148.87s35.8,18.236,45.253,70.919" transform="translate(-69.857 -48.16)"/><path class="d" d="M273.72,258.159l17.561-22.289,21.613,10.807" transform="translate(-88.683 -76.398)"/><path class="d" d="M306.72,221.808s8.78-4.052,11.482-20.938a57.7,57.7,0,0,1,2.026,14.859s8.78-1.351,8.78,10.807" transform="translate(-99.394 -65.038)"/><path class="d" d="M120.72,314.378s12.833,2.026,21.613-13.508c0,0,.675,8.105-5.4,13.508,0,0,5.4,5.4,0,15.535s-16.21,6.754-16.21,6.754" transform="translate(-39.022 -97.496)"/><g transform="translate(39.68 272.942)"><path class="d" d="M64.055,403.87S44.468,522.743,78.914,580.154h28.368l16.21-118.2L137,580.154h42.551l-7.43-147.241" transform="translate(-58.509 -403.87)"/></g><path class="d" d="M114.72,209.87" transform="translate(-37.074 -67.959)"/><path class="d" d="M159.455,66.87c0,22.383-11.117,28.705-28.368,28.705s-28.368-5.646-28.368-28.03" transform="translate(-33.179 -21.544)"/><line class="d" y2="14.859" transform="translate(77.646 26.077)"/><line class="d" y2="14.859" transform="translate(84.4 26.077)"/><line class="d" y2="14.859" transform="translate(91.154 26.077)"/><line class="d" y2="14.859" transform="translate(97.908 26.077)"/><line class="d" y2="14.859" transform="translate(104.662 26.077)"/><line class="d" y2="14.859" transform="translate(111.417 26.077)"/><line class="d" y2="14.859" transform="translate(118.171 26.077)"/><path class="d" d="M105.685,128.419c-2.026-34.446-29.043-57.41-27.017-85.1S100.281,8.87,100.281,8.87" transform="translate(-25.337 -2.718)"/><path class="d" d="M79.83,76.51s6.133,30.232,1,51.71" transform="translate(-25.75 -24.673)"/><circle class="d" cx="1.351" cy="1.351" r="1.351" transform="translate(81.698 3.45)"/><path class="d" d="M134.72,2.1s36.473-9.456,48.63,17.561-8.341,73.776-8.341,73.776" transform="translate(-43.566 0)"/><path d="M125.691,75.73a1.8,1.8,0,0,0-.959.284,6.815,6.815,0,0,1-3.512-.284l2.708,2.033a1.785,1.785,0,1,0,1.763-2.033Z" transform="translate(-39.184 -24.42)"/><path d="M162.74,75.73a1.8,1.8,0,0,1,.959.284,6.815,6.815,0,0,0,3.512-.284L164.5,77.763a1.785,1.785,0,1,1-1.763-2.033Z" transform="translate(-52.08 -24.42)"/></g></svg>